<?xml version="1.0" encoding="UTF-8"?>
<!DOCTYPE svg PUBLIC "-//W3C//DTD SVG 1.1//EN" "http://www.w3.org/Graphics/SVG/1.1/DTD/svg11.dtd">
<svg xmlns="http://www.w3.org/2000/svg" version="1.1" width="200px" height="200px" style="shape-rendering:geometricPrecision; text-rendering:geometricPrecision; image-rendering:optimizeQuality; fill-rule:evenodd; clip-rule:evenodd" xmlns:xlink="http://www.w3.org/1999/xlink">
<g><path style="opacity:0.976" fill="#e40000" d="M 82.5,-0.5 C 86.8333,-0.5 91.1667,-0.5 95.5,-0.5C 131.745,6.90941 154.579,28.5761 164,64.5C 164.895,70.0379 165.728,75.5379 166.5,81C 177.52,81.2863 188.52,81.7863 199.5,82.5C 199.5,86.8333 199.5,91.1667 199.5,95.5C 189.046,138.108 161.879,161.775 118,166.5C 117.128,177.485 116.628,188.485 116.5,199.5C 112.167,199.5 107.833,199.5 103.5,199.5C 67.5317,191.752 44.6984,170.085 35,134.5C 34.1054,128.962 33.2721,123.462 32.5,118C 21.4797,117.714 10.4797,117.214 -0.5,116.5C -0.5,112.167 -0.5,107.833 -0.5,103.5C 7.24513,67.545 28.9118,44.7117 64.5,35C 70.0532,34.1971 75.5532,33.3638 81,32.5C 81.8717,21.5145 82.3717,10.5145 82.5,-0.5 Z M 83.5,34.5 C 112.218,37.3843 128.218,53.2176 131.5,82C 142.213,82.1892 152.88,82.6892 163.5,83.5C 163.412,103.82 154.079,118.32 135.5,127C 129.388,129.389 123.055,130.556 116.5,130.5C 116.667,141.172 116.5,151.839 116,162.5C 113.53,164.487 110.697,164.987 107.5,164C 91.1831,160.01 79.3498,150.51 72,135.5C 69.7819,129.462 68.2819,123.295 67.5,117C 56.4915,116.583 45.4915,116.083 34.5,115.5C 37.3843,86.782 53.2176,70.782 82,67.5C 83.1177,56.5273 83.6177,45.5273 83.5,34.5 Z"/></g>
<g><path style="opacity:0.954" fill="#fefffe" d="M 83.5,76.5 C 85.8568,76.3367 88.1902,76.5034 90.5,77C 100.673,82.9206 111.006,88.5873 121.5,94C 125.541,96.3317 126.375,99.4983 124,103.5C 112.581,110.127 101.081,116.627 89.5,123C 86.3637,124.041 83.8637,123.207 82,120.5C 81.3333,106.5 81.3333,92.5 82,78.5C 82.7172,77.9558 83.2172,77.2891 83.5,76.5 Z"/></g>
</svg>
